<?xml version="1.0"?>
<svg xmlns="http://www.w3.org/2000/svg" xmlns:xlink="http://www.w3.org/1999/xlink" xmlns:svgjs="http://svgjs.com/svgjs" version="1.1" width="512" height="512" x="0" y="0" viewBox="0 0 511 511.9996" style="enable-background:new 0 0 512 512" xml:space="preserve" class=""><g><path xmlns="http://www.w3.org/2000/svg" d="m444.464844 4.394531c-5.855469-5.859375-15.355469-5.859375-21.210938 0l-115.605468 115.605469h-262.148438c-24.8125 0-45 20.1875-45 45v209.996094c0 24.816406 20.1875 45 45 45h16v77c0 6.097656 3.691406 11.589844 9.335938 13.890625 5.726562 2.335937 12.183593.894531 16.386718-3.398438l85.585938-87.492187h174.691406c24.8125 0 45-20.183594 45-45v-170.144532l115.605469-115.605468c5.855469-5.859375 5.855469-15.355469 0-21.214844zm-137.886719 243.949219-42.425781-42.425781 127.28125-127.277344 42.425781 42.425781zm-58.40625-15.980469 31.960937 31.960938-54.78125 22.820312zm114.328125 142.632813c0 8.273437-6.730469 15-15 15h-181c-4.035156 0-7.902344 1.628906-10.722656 4.511718l-64.277344 65.707032v-55.21875c0-8.28125-6.714844-15-15-15h-31c-8.269531 0-15-6.726563-15-15v-209.996094c0-8.273438 6.730469-15 15-15h232.144531l-45.3125 45.3125c-1.25 1.25-2.488281 2.972656-3.3125 5.011719l-41.519531 99.675781h-81c-8.285156 0-15 6.714844-15 15 0 8.28125 6.714844 14.988281 15 14.988281h90.992188.011718c1.929688 0 4-.394531 5.894532-1.207031l108.773437-45.304688c1.8125-.707031 3.640625-1.9375 5.015625-3.3125l45.3125-45.3125zm92.570312-275.144532-42.425781-42.425781 21.214844-21.210937 42.425781 42.425781zm0 0" fill="#464646" data-original="#000000" style="" class=""/></g></svg>
