<?xml version="1.0"?>
<svg xmlns="http://www.w3.org/2000/svg" xmlns:xlink="http://www.w3.org/1999/xlink" xmlns:svgjs="http://svgjs.com/svgjs" version="1.1" width="512" height="512" x="0" y="0" viewBox="0 0 512 512" style="enable-background:new 0 0 512 512" xml:space="preserve" class=""><g transform="matrix(-1,0,0,1,511.99940299987793,0)">
<g xmlns="http://www.w3.org/2000/svg">
	<g>
		<path d="M402.034,77.436C388.486,48.9,369.347,23.147,345.899,1.937c-3.071-2.777-7.814-2.541-10.595,0.531    c-2.778,3.072-2.541,7.815,0.531,10.595c21.976,19.878,39.93,44.022,52.647,70.806c1.79,3.767,6.277,5.324,9.993,3.559    C402.217,85.653,403.81,81.179,402.034,77.436z" fill="#464646" data-original="#000000" style="" class=""/>
	</g>
</g>
<g xmlns="http://www.w3.org/2000/svg">
	<g>
		<path d="M359.714,88.616c-9.581-18.225-21.992-34.925-36.707-49.369c-2.957-2.9-7.706-2.858-10.609,0.098    c-2.901,2.956-2.857,7.705,0.099,10.607c13.592,13.341,25.067,28.771,33.938,45.645c1.342,2.553,3.948,4.012,6.647,4.012    C358.646,99.609,362.361,93.651,359.714,88.616z" fill="#464646" data-original="#000000" style="" class=""/>
	</g>
</g>
<g xmlns="http://www.w3.org/2000/svg">
	<g>
		<path d="M72.529,318.782c-10.942-9.899-20.969-20.941-29.8-32.818c-8.834-11.881-16.52-24.662-22.845-37.987    c-1.776-3.741-6.25-5.336-9.993-3.559c-3.741,1.776-5.336,6.251-3.559,9.993c13.548,28.537,32.686,54.286,56.134,75.497    c1.436,1.299,3.234,1.938,5.029,1.938C74.302,331.845,77.639,323.403,72.529,318.782z" fill="#464646" data-original="#000000" style="" class=""/>
	</g>
</g>
<g xmlns="http://www.w3.org/2000/svg">
	<g>
		<path d="M95.87,281.895c-13.593-13.344-25.066-28.772-33.937-45.646c-1.926-3.665-6.459-5.074-10.13-3.148    c-3.666,1.928-5.076,6.463-3.148,10.13c9.231,17.559,21.469,34.413,36.707,49.37c2.954,2.899,7.703,2.86,10.607-0.099    C98.87,289.545,98.826,284.797,95.87,281.895z" fill="#464646" data-original="#000000" style="" class=""/>
	</g>
</g>
<g xmlns="http://www.w3.org/2000/svg">
	<g>
		<path d="M499.781,371.92l-13.367-17.98c1.904-7.314,8.028-25.754,4.968-51.339c-3.324-27.768-11.94-32.114-14.678-48.103    c-6.713-39.192,11.373-92.947,15.066-103.325c0.155-0.437,0.247-0.707,0.277-0.803c7.899-24.969,13.117-41.466-12.029-53.564    c-22.497-10.822-46.173-1.213-60.314,24.482c-0.866,1.574-19.008,34.933-26.809,80.441l-92.57-124.504    c-2.472-3.326-7.172-4.018-10.495-1.544c-3.324,2.472-4.016,7.171-1.544,10.494l103.578,139.309    c4.091,5.502,12.838,3.055,13.486-3.765c4.912-51.683,26.576-91.522,27.497-93.194c3.853-7.006,18.18-29.018,40.668-18.198    c14.204,6.834,11.611,10.803,4.122,35.816c-5.497,15.446-22.878,69.093-15.72,110.888c3.435,20.051,11.442,21.223,14.568,47.355    c1.252,10.46,0.869,21.125-1.127,31.831c-0.482,2.363-3.211,13.553-13.584,26.015c-2.649,3.184-2.217,7.913,0.967,10.564    c3.189,2.655,7.919,2.21,10.564-0.967c1.427-1.714,2.733-3.412,3.935-5.084l10.503,14.126c6.101,8.205,4.388,19.843-3.815,25.942    l-15.78,11.733c-5.794,4.308-2.714,13.52,4.48,13.52c4.236,0,4.927-2.383,20.251-13.215    C507.72,407.815,510.817,386.761,499.781,371.92z" fill="#464646" data-original="#000000" style="" class=""/>
	</g>
</g>
<g xmlns="http://www.w3.org/2000/svg">
	<g>
		<path d="M450.504,441.011c-2.472-3.326-7.172-4.018-10.494-1.544l-72.417,53.844c-8.293,6.165-20.053,4.433-26.217-3.855    c-2.995-3.154-13.062-22.889-37.872-30.259c-44.591-13.246-59.616-46.662-68.075-55.748c-2.471-3.324-7.171-4.016-10.495-1.543    c-3.323,2.472-4.015,7.171-1.543,10.495c7.916,8.427,25.751,46.297,75.842,61.176c19.255,5.72,26.879,21.366,30.107,24.829    c11.08,14.901,32.252,18.061,47.205,6.943l72.418-53.844C452.285,449.033,452.976,444.334,450.504,441.011z" fill="#464646" data-original="#000000" style="" class=""/>
	</g>
</g>
<g xmlns="http://www.w3.org/2000/svg">
	<g>
		<g>
			<path d="M102.826,250.247c-0.021-0.028-0.037-0.049-0.048-0.065C102.791,250.199,102.807,250.222,102.826,250.247z" fill="#464646" data-original="#000000" style="" class=""/>
			<path d="M102.755,250.152C102.753,250.149,102.753,250.149,102.755,250.152L102.755,250.152z" fill="#464646" data-original="#000000" style="" class=""/>
			<path d="M317.375,203.536L218.852,71.023v-0.001c-7.985-10.737-5.469-26.482,6.624-33.883     c10.155-6.217,23.866-3.343,31.216,6.541l10.675,14.358c2.471,3.325,7.171,4.016,10.494,1.544     c3.324-2.471,4.016-7.17,1.544-10.494l-10.675-14.358c-19.083-25.665-59.451-18.936-68.091,12.115     c-21.714-23.89-61.463-12.786-66.591,19.229c-1.479,9.233,0.392,18.453,5.278,26.291c-31.77-0.685-50.429,35.775-31.132,61.726     l11.734,15.782c-32.355-0.346-49.896,36.267-30.972,61.72c9.667,13.002,12.875,17.316,13.804,18.566     c-0.002-0.003-0.003-0.005-0.005-0.006c0.003,0.004,0.011,0.015,0.023,0.03c-0.006-0.009-0.012-0.016-0.016-0.021     c0.103,0.139,0.18,0.242,0.232,0.312c-0.054-0.073-0.119-0.16-0.168-0.226c0.044,0.059,0.112,0.151,0.208,0.28     c0.001,0.002,0.003,0.004,0.004,0.005c1.996,2.685,16.408,22.068,99.43,133.73c1.472,1.98,3.733,3.026,6.025,3.025     c6.073,0,9.723-6.987,6.014-11.976C77.984,191.69,115.436,242.065,100.994,222.641c-12.373-16.643,0.388-39.717,20.698-37.654     c11.121,1.128,16.275,9.205,16.393,9.308l68.253,91.798c1.472,1.98,3.733,3.025,6.025,3.025c6.089,0,9.715-6.998,6.014-11.976     c-9.24-12.428-88.916-119.589-98.147-132.004c-7.48-10.06-6.135-24.148,3.063-32.073c10.362-8.927,25.938-7.154,34.018,3.712     l92.621,124.573c1.472,1.98,3.733,3.025,6.025,3.025c1.556,0,3.125-0.481,4.469-1.481c3.324-2.472,4.016-7.171,1.544-10.494     c-8.17-10.993-103.364-139.027-108.796-146.334c-7.825-10.523-5.477-25.424,5.307-33.021c10.247-7.214,24.856-4.645,32.568,5.727     c2.024,2.722,113.197,152.247,114.287,153.713c2.474,3.33,7.179,4.011,10.494,1.544     C319.156,211.557,319.848,206.859,317.375,203.536z M103.049,250.548C103.122,250.645,103.103,250.62,103.049,250.548     L103.049,250.548z" fill="#464646" data-original="#000000" style="" class=""/>
		</g>
	</g>
</g>
<g xmlns="http://www.w3.org/2000/svg">
</g>
<g xmlns="http://www.w3.org/2000/svg">
</g>
<g xmlns="http://www.w3.org/2000/svg">
</g>
<g xmlns="http://www.w3.org/2000/svg">
</g>
<g xmlns="http://www.w3.org/2000/svg">
</g>
<g xmlns="http://www.w3.org/2000/svg">
</g>
<g xmlns="http://www.w3.org/2000/svg">
</g>
<g xmlns="http://www.w3.org/2000/svg">
</g>
<g xmlns="http://www.w3.org/2000/svg">
</g>
<g xmlns="http://www.w3.org/2000/svg">
</g>
<g xmlns="http://www.w3.org/2000/svg">
</g>
<g xmlns="http://www.w3.org/2000/svg">
</g>
<g xmlns="http://www.w3.org/2000/svg">
</g>
<g xmlns="http://www.w3.org/2000/svg">
</g>
<g xmlns="http://www.w3.org/2000/svg">
</g>
</g></svg>
