<svg width="512" height="512" xmlns="http://www.w3.org/2000/svg">

 <g>
  <title>background</title>
  <rect fill="none" id="canvas_background" height="602" width="802" y="-1" x="-1"/>
 </g>
 <g>
  <title>Layer 1</title>
  <g id="svg_1" transform="matrix(-1,0,0,1,511.99940299987793,0) ">
   <g id="svg_2">
    <g id="svg_3">
     <path id="svg_4" fill="#464646" d="m402.034,77.436c-13.548,-28.536 -32.687,-54.289 -56.135,-75.499c-3.071,-2.777 -7.814,-2.541 -10.595,0.531c-2.778,3.072 -2.541,7.815 0.531,10.595c21.976,19.878 39.93,44.022 52.647,70.806c1.79,3.767 6.277,5.324 9.993,3.559c3.742,-1.775 5.335,-6.249 3.559,-9.992z"/>
    </g>
   </g>
   <g id="svg_5">
    <g id="svg_6">
     <path id="svg_7" fill="#464646" d="m359.714,88.616c-9.581,-18.225 -21.992,-34.925 -36.707,-49.369c-2.957,-2.9 -7.706,-2.858 -10.609,0.098c-2.901,2.956 -2.857,7.705 0.099,10.607c13.592,13.341 25.067,28.771 33.938,45.645c1.342,2.553 3.948,4.012 6.647,4.012c5.564,0 9.279,-5.958 6.632,-10.993z"/>
    </g>
   </g>
   <g id="svg_8">
    <g id="svg_9">
     <path id="svg_10" fill="#464646" d="m72.529,318.782c-10.942,-9.899 -20.969,-20.941 -29.8,-32.818c-8.834,-11.881 -16.52,-24.662 -22.845,-37.987c-1.776,-3.741 -6.25,-5.336 -9.993,-3.559c-3.741,1.776 -5.336,6.251 -3.559,9.993c13.548,28.537 32.686,54.286 56.134,75.497c1.436,1.299 3.234,1.938 5.029,1.938c6.807,-0.001 10.144,-8.443 5.034,-13.064z"/>
    </g>
   </g>
   <g id="svg_11">
    <g id="svg_12">
     <path id="svg_13" fill="#464646" d="m95.87,281.895c-13.593,-13.344 -25.066,-28.772 -33.937,-45.646c-1.926,-3.665 -6.459,-5.074 -10.13,-3.148c-3.666,1.928 -5.076,6.463 -3.148,10.13c9.231,17.559 21.469,34.413 36.707,49.37c2.954,2.899 7.703,2.86 10.607,-0.099c2.901,-2.957 2.857,-7.705 -0.099,-10.607z"/>
    </g>
   </g>
   <g id="svg_14">
    <g id="svg_15">
     <path id="svg_16" fill="#464646" d="m499.781,371.92l-13.367,-17.98c1.904,-7.314 8.028,-25.754 4.968,-51.339c-3.324,-27.768 -11.94,-32.114 -14.678,-48.103c-6.713,-39.192 11.373,-92.947 15.066,-103.325c0.155,-0.437 0.247,-0.707 0.277,-0.803c7.899,-24.969 13.117,-41.466 -12.029,-53.564c-22.497,-10.822 -46.173,-1.213 -60.314,24.482c-0.866,1.574 -19.008,34.933 -26.809,80.441l-92.57,-124.504c-2.472,-3.326 -7.172,-4.018 -10.495,-1.544c-3.324,2.472 -4.016,7.171 -1.544,10.494l103.578,139.309c4.091,5.502 12.838,3.055 13.486,-3.765c4.912,-51.683 26.576,-91.522 27.497,-93.194c3.853,-7.006 18.18,-29.018 40.668,-18.198c14.204,6.834 11.611,10.803 4.122,35.816c-5.497,15.446 -22.878,69.093 -15.72,110.888c3.435,20.051 11.442,21.223 14.568,47.355c1.252,10.46 0.869,21.125 -1.127,31.831c-0.482,2.363 -3.211,13.553 -13.584,26.015c-2.649,3.184 -2.217,7.913 0.967,10.564c3.189,2.655 7.919,2.21 10.564,-0.967c1.427,-1.714 2.733,-3.412 3.935,-5.084l10.503,14.126c6.101,8.205 4.388,19.843 -3.815,25.942l-15.78,11.733c-5.794,4.308 -2.714,13.52 4.48,13.52c4.236,0 4.927,-2.383 20.251,-13.215c14.841,-11.036 17.938,-32.09 6.902,-46.931z"/>
    </g>
   </g>
   <g id="svg_17">
    <g id="svg_18">
     <path id="svg_19" fill="#464646" d="m450.504,441.011c-2.472,-3.326 -7.172,-4.018 -10.494,-1.544l-72.417,53.844c-8.293,6.165 -20.053,4.433 -26.217,-3.855c-2.995,-3.154 -13.062,-22.889 -37.872,-30.259c-44.591,-13.246 -59.616,-46.662 -68.075,-55.748c-2.471,-3.324 -7.171,-4.016 -10.495,-1.543c-3.323,2.472 -4.015,7.171 -1.543,10.495c7.916,8.427 25.751,46.297 75.842,61.176c19.255,5.72 26.879,21.366 30.107,24.829c11.08,14.901 32.252,18.061 47.205,6.943l72.418,-53.844c3.322,-2.472 4.013,-7.171 1.541,-10.494z"/>
    </g>
   </g>
   <g id="svg_20">
    <g id="svg_21">
     <g id="svg_22">
      <path id="svg_23" fill="#464646" d="m102.826,250.247c-0.021,-0.028 -0.037,-0.049 -0.048,-0.065c0.013,0.017 0.029,0.04 0.048,0.065z"/>
      <path id="svg_24" fill="#464646" d="m102.755,250.152c-0.002,-0.003 -0.002,-0.003 0,0l0,0z"/>
      <path id="svg_25" fill="#464646" d="m317.375,203.536l-98.523,-132.513l0,-0.001c-7.985,-10.737 -5.469,-26.482 6.624,-33.883c10.155,-6.217 23.866,-3.343 31.216,6.541l10.675,14.358c2.471,3.325 7.171,4.016 10.494,1.544c3.324,-2.471 4.016,-7.17 1.544,-10.494l-10.675,-14.358c-19.083,-25.665 -59.451,-18.936 -68.091,12.115c-21.714,-23.89 -61.463,-12.786 -66.591,19.229c-1.479,9.233 0.392,18.453 5.278,26.291c-31.77,-0.685 -50.429,35.775 -31.132,61.726l11.734,15.782c-32.355,-0.346 -49.896,36.267 -30.972,61.72c9.667,13.002 12.875,17.316 13.804,18.566c-0.002,-0.003 -0.003,-0.005 -0.005,-0.006c0.003,0.004 0.011,0.015 0.023,0.03c-0.006,-0.009 -0.012,-0.016 -0.016,-0.021c0.103,0.139 0.18,0.242 0.232,0.312c-0.054,-0.073 -0.119,-0.16 -0.168,-0.226c0.044,0.059 0.112,0.151 0.208,0.28c0.001,0.002 0.003,0.004 0.004,0.005c1.996,2.685 16.408,22.068 99.43,133.73c1.472,1.98 3.733,3.026 6.025,3.025c6.073,0 9.723,-6.987 6.014,-11.976c-136.523,-183.622 -99.071,-133.247 -113.513,-152.671c-12.373,-16.643 0.388,-39.717 20.698,-37.654c11.121,1.128 16.275,9.205 16.393,9.308l68.253,91.798c1.472,1.98 3.733,3.025 6.025,3.025c6.089,0 9.715,-6.998 6.014,-11.976c-9.24,-12.428 -88.916,-119.589 -98.147,-132.004c-7.48,-10.06 -6.135,-24.148 3.063,-32.073c10.362,-8.927 25.938,-7.154 34.018,3.712l92.621,124.573c1.472,1.98 3.733,3.025 6.025,3.025c1.556,0 3.125,-0.481 4.469,-1.481c3.324,-2.472 4.016,-7.171 1.544,-10.494c-8.17,-10.993 -103.364,-139.027 -108.796,-146.334c-7.825,-10.523 -5.477,-25.424 5.307,-33.021c10.247,-7.214 24.856,-4.645 32.568,5.727c2.024,2.722 113.197,152.247 114.287,153.713c2.474,3.33 7.179,4.011 10.494,1.544c3.326,-2.472 4.018,-7.17 1.545,-10.493zm-214.326,47.012c0.073,0.097 0.054,0.072 0,0l0,0z"/>
     </g>
    </g>
   </g>
   <g id="svg_26"/>
   <g id="svg_27"/>
   <g id="svg_28"/>
   <g id="svg_29"/>
   <g id="svg_30"/>
   <g id="svg_31"/>
   <g id="svg_32"/>
   <g id="svg_33"/>
   <g id="svg_34"/>
   <g id="svg_35"/>
   <g id="svg_36"/>
   <g id="svg_37"/>
   <g id="svg_38"/>
   <g id="svg_39"/>
   <g id="svg_40"/>
  </g>
  <path id="svg_47" d="m28.5,425.5c-1,0 58,43 57.5,42.5c0.5,0.5 65.5,37.5 65.5,38.5c0,1 34,-27 33.5,-27.5c0.5,0.5 29.5,-11.5 29,-12c0.5,0.5 17.5,-15.5 17,-16c0.5,0.5 20.5,-3.5 20,-4c0.5,0.5 22.5,-14.5 22,-15c0.5,0.5 44.5,-59.5 44.5,-59.5c0,0 107,-154 106.5,-154.5c0.5,0.5 -3.5,-24.5 -4,-25c0.5,0.5 -6.5,-7.5 -7.5,-7.5c-1,0 -10,-6 -11,-6c-1,0 -17,-4 -17.5,-4.5c0.5,0.5 4.5,-10.5 4,-11c0.5,0.5 11.5,-13.5 11.5,-14.5c0,-1 6,-18 5,-20c-1,-2 -11,-25 -11,-26c0,-1 -11,-7 -13,-4c-2,3 -17,3 -17.5,2.5c0.5,0.5 9.5,-23.5 9,-24c0.5,0.5 -3.5,-20.5 -5.5,-20.5c-2,0 -17,-11 -18,-12c-1,-1 -19,-4 -21,-2c-2,2 -17,12 -17.5,11.5c0.5,0.5 -12.5,-15.5 -13,-16c0.5,0.5 -15.5,-12.5 -16,-13c0.5,0.5 -17.5,4.5 -18,4c0.5,0.5 -13.5,13.5 -14,13c0.5,0.5 -14.5,4.5 -15,4c0.5,0.5 -27.5,40.5 -27.5,40.5c0,0 -83,122 -83.5,121.5c0.5,0.5 -14.5,-20.5 -15,-21c0.5,0.5 -3.5,-25.5 -4,-26c0.5,0.5 -6.5,-27.5 -9.5,-29.5c-3,-2 -17,-21 -17.5,-21.5c0.5,0.5 -12.5,-5.5 -13,-6c0.5,0.5 -18.5,-4.5 -19,-5c0.5,0.5 -25.5,11.5 -26,11c0.5,0.5 10.5,40.5 10,40c0.5,0.5 6.5,32.5 6,32c0.5,0.5 11.5,39.5 11,39c0.5,0.5 -3.5,18.5 -4,18c0.5,0.5 -2.5,33.5 -3,33c0.5,0.5 -4.5,10.5 -6.5,12.5c-2,2 -4,23 -4,24c0,1 3,38 4,38c1,0 4,10 3.5,9.5c0.5,0.5 -14.5,10.5 -15,10c0.5,0.5 -5.5,19.5 -6.5,22.5c-1,3 2,20 1.5,19.5" stroke-width="1.5" fill="#464646"/>
 </g>
</svg>