<?xml version="1.0"?>
<svg xmlns="http://www.w3.org/2000/svg" xmlns:xlink="http://www.w3.org/1999/xlink" xmlns:svgjs="http://svgjs.com/svgjs" version="1.1" width="512" height="512" x="0" y="0" viewBox="0 0 64 64" style="enable-background:new 0 0 512 512" xml:space="preserve" class=""><g><path xmlns="http://www.w3.org/2000/svg" d="m53.649 45c.218-.456.351-.961.351-1.5v-8.482h8v-12h-6v-3c0-4.212-2.913-7.748-6.817-8.724 1.119-1.091 1.817-2.612 1.817-4.294 0-3.309-2.691-6-6-6s-6 2.691-6 6c0 1.77.775 3.359 1.998 4.458-1.392.319-2.747.799-4.023 1.437l-9.081 4.54c-.321.161-.605.369-.853.611-.604-.086-1.268-.034-1.878.22l-10.362 4.317c.75-1.002 1.199-2.239 1.199-3.583 0-3.309-2.691-6-6-6s-6 2.691-6 6c0 1.945.935 3.672 2.374 4.769-3.16 1.398-5.374 4.559-5.374 8.231v8 19.5c0 1.753 1.299 3.195 2.983 3.448v.052h59.017v-18zm-1.649-1.5c0 .827-.673 1.5-1.5 1.5s-1.5-.673-1.5-1.5v-8.482h3zm-5-8.482v8.482c0 .539.133 1.044.351 1.5h-4.702c.218-.456.351-.961.351-1.5v-8.736l3-.818v1.072zm13-10v8h-12v-8h2v1c0 1.654 1.346 3 3 3s3-1.346 3-3v-1zm-19-18.018c0-2.206 1.794-4 4-4s4 1.794 4 4c0 2.154-1.715 3.904-3.849 3.985l-.133-.002v.016c-.007-.001-.012.001-.018.001-2.206 0-4-1.794-4-4zm-12.211 12.224 9.081-4.54c2.201-1.102 4.667-1.684 7.13-1.684.086 0 .169-.009.254-.013l1.746.031c3.86 0 7 3.14 7 7v6c0 .551-.449 1-1 1s-1-.449-1-1v-5.159c0-2.098-.813-4.073-2.29-5.562l-1.42 1.408c1.103 1.112 1.71 2.588 1.71 4.154v2.159h-4v8.855l-3.526.962c-.868.236-1.474 1.029-1.474 1.929v8.736c0 .827-.673 1.5-1.5 1.5s-1.5-.673-1.5-1.5v-12.028c0-1.144.635-2.172 1.658-2.683l4.342-2.171v-10.618h-2.236l-11.698 5.849c-.198.099-.419.151-.639.151-.787 0-1.427-.64-1.427-1.5 0-.544.302-1.033.789-1.276zm-14.789 17.776h-1v-5.365l15.02-7.068c.329-.154.617-.373.879-.62.174.027.348.053.528.053.528 0 1.058-.125 1.533-.362l11.04-5.52v7.264l-3.236 1.618c-1.705.852-2.764 2.566-2.764 4.472v12.028c0 .539.133 1.044.351 1.5h-14.742l-2.609 2.405v-5.405c0-2.757-2.243-5-5-5zm-8-18c0-2.206 1.794-4 4-4s4 1.794 4 4-1.794 4-4 4-4-1.794-4-4zm-3 13c0-3.86 3.14-7 7-7h4.2l11.733-4.889c.03-.012.066-.02.099-.031-.02.161-.032.325-.032.493 0 .891.35 1.696.909 2.306l-15.909 7.486v8.635h3c1.654 0 3 1.346 3 3v8 1.499c0 .828-.673 1.501-1.501 1.501-.401 0-.778-.156-1.061-.439-.284-.284-.439-.661-.439-1.062l.001-6.499c0-1.103-.897-2-2-2h-6c-1.654 0-3-1.346-3-3zm5 13h4l-.001 6.498c0 .669.193 1.307.542 1.859l-4.541 4.184zm-5 14.5v-15.526c.838.635 1.87 1.026 3 1.026v14.5c0 .827-.673 1.5-1.5 1.5s-1.5-.673-1.5-1.5zm58 1.5h-53.351c.095-.199.17-.407.227-.625l6.18-5.695c.449.204.936.32 1.443.32 1.931 0 3.501-1.57 3.501-3.501v-1.375l3.391-3.124h38.609z" fill="#464646" data-original="#000000" style="" class=""/><path xmlns="http://www.w3.org/2000/svg" d="m57 57h2v2h-2z" fill="#464646" data-original="#000000" style="" class=""/><path xmlns="http://www.w3.org/2000/svg" d="m53 57h2v2h-2z" fill="#464646" data-original="#000000" style="" class=""/><path xmlns="http://www.w3.org/2000/svg" d="m49 57h2v2h-2z" fill="#464646" data-original="#000000" style="" class=""/></g></svg>
