<?xml version="1.0" standalone="no"?>
<!DOCTYPE svg PUBLIC "-//W3C//DTD SVG 20010904//EN"
 "http://www.w3.org/TR/2001/REC-SVG-20010904/DTD/svg10.dtd">
<svg version="1.0" xmlns="http://www.w3.org/2000/svg"
 width="225.000000pt" height="225.000000pt" viewBox="0 0 225.000000 225.000000"
 preserveAspectRatio="xMidYMid meet">

<g transform="translate(0.000000,225.000000) scale(0.100000,-0.100000)"
fill="#000000" stroke="none">
<path d="M1092 2068 c-14 -7 -74 -102 -166 -262 -79 -138 -309 -539 -510 -890
-230 -402 -366 -649 -366 -666 0 -14 9 -36 20 -48 l21 -22 1034 0 1034 0 20
26 c28 36 26 57 -8 118 -566 1000 -978 1716 -997 1734 -27 24 -47 26 -82 10z
m485 -970 l441 -783 -890 -3 c-490 -1 -893 0 -896 2 -2 3 101 188 230 413 129
224 331 576 448 781 118 204 217 372 220 372 3 0 205 -352 447 -782z"/>
<path d="M1055 1551 c-61 -27 -80 -76 -71 -183 20 -243 59 -565 72 -590 25
-48 99 -50 129 -4 22 34 88 639 75 685 -14 51 -38 81 -75 97 -46 19 -82 17
-130 -5z"/>
<path d="M1062 640 c-74 -34 -103 -137 -57 -207 41 -62 134 -82 196 -40 95 63
89 193 -11 245 -54 27 -73 27 -128 2z"/>
</g>
</svg>
