<?xml version="1.0" standalone="no"?>
<!DOCTYPE svg PUBLIC "-//W3C//DTD SVG 20010904//EN"
 "http://www.w3.org/TR/2001/REC-SVG-20010904/DTD/svg10.dtd">
<svg version="1.0" xmlns="http://www.w3.org/2000/svg"
 width="172.000000pt" height="172.000000pt" viewBox="0 0 172.000000 172.000000"
 preserveAspectRatio="xMidYMid meet">
<metadata>
Created by potrace 1.16, written by Peter Selinger 2001-2019
</metadata>
<g transform="translate(0.000000,172.000000) scale(0.100000,-0.100000)"
fill="#000000" stroke="none">
<path d="M1008 1579 c-32 -18 -19 -46 45 -102 34 -31 85 -83 112 -116 43 -53
54 -61 80 -59 50 5 44 36 -20 111 -53 63 -178 177 -193 177 -4 0 -15 -5 -24
-11z"/>
<path d="M752 1538 c-26 -26 -11 -47 74 -103 101 -68 211 -173 278 -268 41
-58 52 -68 75 -65 69 8 10 108 -160 273 -97 94 -208 175 -241 175 -8 0 -19 -5
-26 -12z"/>
<path d="M472 1464 c-16 -11 -22 -25 -22 -51 0 -34 13 -50 175 -213 96 -97
175 -184 175 -193 0 -52 -36 -25 -269 207 -255 253 -262 257 -315 215 -18 -14
-26 -30 -26 -52 0 -27 27 -59 221 -253 158 -158 220 -227 216 -238 -4 -9 -14
-16 -23 -16 -9 0 -106 86 -216 191 -181 173 -201 190 -226 185 -15 -4 -35 -16
-44 -28 -40 -46 -30 -59 197 -288 151 -151 215 -222 215 -238 0 -52 -42 -24
-205 138 -170 168 -185 178 -233 144 -16 -11 -22 -25 -22 -52 0 -35 16 -53
333 -369 217 -216 348 -339 377 -354 65 -34 205 -34 270 -1 48 25 258 226 290
278 11 17 38 89 60 160 23 71 49 144 58 163 9 19 56 76 105 127 84 89 87 95
87 139 0 38 -5 52 -29 76 -24 24 -38 29 -75 29 -46 0 -48 -1 -185 -135 -200
-194 -151 -208 -516 155 -251 250 -295 290 -321 290 -16 0 -40 -7 -52 -16z"/>
<path d="M117 613 c-16 -15 -4 -53 37 -113 88 -132 244 -278 370 -346 48 -26
48 -26 67 -7 29 28 16 46 -68 99 -95 59 -223 185 -297 292 -43 61 -63 82 -80
82 -13 0 -26 -3 -29 -7z"/>
</g>
</svg>
