<?xml version="1.0" standalone="no"?>
<!DOCTYPE svg PUBLIC "-//W3C//DTD SVG 20010904//EN"
 "http://www.w3.org/TR/2001/REC-SVG-20010904/DTD/svg10.dtd">
<svg version="1.0" xmlns="http://www.w3.org/2000/svg"
 width="172.000000pt" height="172.000000pt" viewBox="0 0 172.000000 172.000000"
 preserveAspectRatio="xMidYMid meet">
<metadata>
Created by potrace 1.16, written by Peter Selinger 2001-2019
</metadata>
<g transform="translate(0.000000,172.000000) scale(0.100000,-0.100000)"
fill="#000000" stroke="none">
<path d="M1008 1579 c-32 -18 -19 -46 50 -107 37 -33 88 -85 112 -116 39 -49
49 -56 75 -54 50 5 44 36 -20 111 -53 63 -178 177 -193 177 -4 0 -15 -5 -24
-11z"/>
<path d="M752 1538 c-25 -25 -12 -47 56 -91 109 -70 206 -160 278 -257 58 -78
72 -91 94 -88 68 8 8 109 -161 274 -94 90 -210 174 -243 174 -6 0 -17 -5 -24
-12z"/>
<path d="M472 1464 c-16 -11 -22 -25 -22 -51 0 -34 13 -50 175 -213 96 -97
175 -184 175 -193 0 -51 -36 -24 -270 207 -178 175 -246 236 -263 236 -39 0
-77 -36 -77 -73 0 -27 27 -59 221 -253 158 -158 220 -227 216 -238 -4 -9 -14
-16 -23 -16 -9 0 -106 86 -216 191 -181 173 -201 190 -226 185 -15 -4 -35 -16
-44 -28 -40 -46 -30 -59 197 -288 151 -151 215 -222 215 -238 0 -52 -42 -24
-205 138 -170 168 -185 178 -233 144 -16 -11 -22 -25 -22 -52 0 -35 16 -53
333 -369 217 -216 348 -339 377 -354 65 -34 205 -34 270 -1 47 25 258 226 290
277 10 17 37 89 60 160 23 72 49 145 58 164 9 19 56 76 105 127 84 89 87 95
87 139 0 38 -5 52 -29 76 -24 23 -38 29 -75 29 -44 0 -47 -2 -185 -135 -200
-193 -151 -208 -516 155 -251 250 -295 290 -321 290 -16 0 -40 -7 -52 -16z"/>
<path d="M117 613 c-17 -16 -3 -55 44 -122 96 -138 238 -269 363 -337 48 -26
48 -26 67 -7 29 28 16 46 -68 99 -96 60 -235 196 -302 297 -39 59 -57 77 -75
77 -12 0 -26 -3 -29 -7z"/>
</g>
</svg>
